<?xml version="1.0" encoding="utf-8"?>
<!-- Generator: Adobe Illustrator 24.1.3, SVG Export Plug-In . SVG Version: 6.00 Build 0)  -->
<svg version="1.1" id="Capa_1" xmlns="http://www.w3.org/2000/svg" xmlns:xlink="http://www.w3.org/1999/xlink" x="0px" y="0px"
	 viewBox="0 0 512 512" style="enable-background:new 0 0 512 512;" xml:space="preserve">
<style type="text/css">
	.st0{fill:#212529;}
</style>
<g>
	<g>
		<path class="st0" d="M448,69.7c5.5,0,10-4.5,10-10V42c0-23.2-18.8-42-42-42H96C72.8,0,54,18.8,54,42v70.3H34c-7.7,0-14-6.3-14-14
			s6.3-14,14-14c5.5,0,10-4.5,10-10s-4.5-10-10-10c-18.7,0-34,15.3-34,34s15.3,34,34,34h20v137.9H34c-7.7,0-14-6.3-14-14
			s6.3-14,14-14c5.5,0,10-4.5,10-10s-4.5-10-10-10c-18.7,0-34,15.3-34,34c0,18.7,15.3,34,34,34h20V428H34c-7.7,0-14-6.3-14-14
			s6.3-14,14-14c5.5,0,10-4.5,10-10s-4.5-10-10-10c-18.7,0-34,15.3-34,34c0,18.7,15.3,34,34,34h20v22c0,23.2,18.8,42,42,42h320
			c23.2,0,42-18.8,42-42V327.7c0-5.5-4.5-10-10-10s-10,4.5-10,10V470c0,12.1-9.9,22-22,22H96c-12.1,0-22-9.9-22-22v-22h24.2
			c18.7,0,34-15.3,34-34c0-18.7-15.3-34-34-34h-1c-5.5,0-10,4.5-10,10s4.5,10,10,10h1c7.7,0,14,6.3,14,14s-6.3,14-14,14H74V290.1
			h24.2c18.7,0,34-15.3,34-34s-15.3-34-34-34h-1c-5.5,0-10,4.5-10,10s4.5,10,10,10h1c7.7,0,14,6.3,14,14s-6.3,14-14,14H74V132.3
			h24.2c18.7,0,34-15.3,34-34c0-18.7-15.3-34-34-34h-1c-5.5,0-10,4.5-10,10s4.5,10,10,10h1c7.7,0,14,6.3,14,14s-6.3,14-14,14H74V42
			c0-12.1,9.9-22,22-22h320c12.1,0,22,9.9,22,22v17.7C438,65.2,442.5,69.7,448,69.7z"/>
	</g>
</g>
<g>
	<g>
		<path class="st0" d="M244.1,379.2c-1.9-1.9-4.4-2.9-7.1-2.9c-2.6,0-5.2,1.1-7.1,2.9c-1.9,1.9-2.9,4.4-2.9,7.1
			c0,2.6,1.1,5.2,2.9,7.1c1.9,1.9,4.4,2.9,7.1,2.9s5.2-1.1,7.1-2.9c1.9-1.9,2.9-4.4,2.9-7.1C247,383.6,245.9,381,244.1,379.2z"/>
	</g>
</g>
<g>
	<g>
		<path class="st0" d="M199,376.3h-39.8c-5.5,0-10,4.5-10,10s4.5,10,10,10H199c5.5,0,10-4.5,10-10S204.5,376.3,199,376.3z"/>
	</g>
</g>
<g>
	<g>
		<path class="st0" d="M256,288.3h-96.8c-5.5,0-10,4.5-10,10s4.5,10,10,10H256c5.5,0,10-4.5,10-10S261.5,288.3,256,288.3z"/>
	</g>
</g>
<g>
	<g>
		<path class="st0" d="M294,200.3H159.2c-5.5,0-10,4.5-10,10s4.5,10,10,10H294c5.5,0,10-4.5,10-10S299.5,200.3,294,200.3z"/>
	</g>
</g>
<g>
	<g>
		<path class="st0" d="M329,112.3H159.2c-5.5,0-10,4.5-10,10s4.5,10,10,10H329c5.5,0,10-4.5,10-10S334.6,112.3,329,112.3z"/>
	</g>
</g>
<g>
	<g>
		<path class="st0" d="M510.8,144.8c-2.4-9.1-8.2-16.6-16.4-21.3l-37.7-21.8c-16.8-9.7-38.3-3.9-48,12.9L273.3,349.3
			c-0.9,1.5-1.3,3.2-1.3,5V448c0,3.6,1.9,6.9,5,8.7c1.5,0.9,3.3,1.3,5,1.3s3.5-0.4,5-1.3l81.2-46.9c1.5-0.9,2.8-2.1,3.7-3.7
			l135.5-234.7C512,163.3,513.2,153.8,510.8,144.8z M291.9,430.7v-22l19.1,10.9L291.9,430.7z M331.1,408.1l-39.1-22.4v-14.1
			l51.2,29.5L331.1,408.1z M359.4,387.5l-63.9-36.9l105.2-182.2l63.9,36.9L359.4,387.5z M490,161.4l-15.3,26.6l-63.9-36.9l15.3-26.5
			c4.2-7.2,13.4-9.7,20.6-5.5l37.7,21.8c3.5,2,6,5.3,7,9.2C492.5,153.8,492,157.9,490,161.4z"/>
	</g>
</g>
</svg>
