<?xml version="1.0" encoding="utf-8"?>
<!-- Generator: Adobe Illustrator 24.1.3, SVG Export Plug-In . SVG Version: 6.00 Build 0)  -->
<svg version="1.1" id="Layer_1" xmlns="http://www.w3.org/2000/svg" xmlns:xlink="http://www.w3.org/1999/xlink" x="0px" y="0px"
	 viewBox="0 0 511 512" style="enable-background:new 0 0 511 512;" xml:space="preserve">
<style type="text/css">
	.st0{fill:#212529;}
</style>
<path class="st0" d="M497.7,199.3l-76.4-45.9c0-0.2,0-0.5,0-0.8V7.6c0-4.2-3.4-7.6-7.6-7.6h-33.3c-4.2,0-7.6,3.4-7.6,7.6
	s3.4,7.6,7.6,7.6h25.7v129.3l-67.6-40.6h34.8c4.2,0,7.6-3.4,7.6-7.6s-3.4-7.6-7.6-7.6h-58.8c-0.4,0-0.7,0-1.1,0.1l-28.7-17.2h88.6
	c4.2,0,7.6-3.4,7.6-7.6c0-4.2-3.4-7.6-7.6-7.6H260.5c-0.3,0-0.5,0-0.8,0l-38.6-23.2c-3.5-2.1-8.3-0.9-10.4,2.6l-2.6,4.4h-76.6
	c-4.2,0-7.6,3.4-7.6,7.6v80.6c0,4.2,3.4,7.6,7.6,7.6h19.2l-51.9,86.5V15.1h246.8c4.2,0,7.6-3.4,7.6-7.6S349.7,0,345.5,0H91.2
	c-4.2,0-7.6,3.4-7.6,7.6v240.2l-72.1,120c-2.1,3.6-1,8.2,2.6,10.4l221.2,132.8c1.7,1,3.8,1.3,5.7,0.9l88.5-22.1
	c1.9-0.5,3.6-1.7,4.6-3.4l50.5-84.1h29c4.2,0,7.6-3.4,7.6-7.6v-53.3l79-131.6C502.4,206.1,501.3,201.5,497.7,199.3z M159.7,120.9
	h-20.7V55.4h60L159.7,120.9C159.7,120.9,159.7,120.9,159.7,120.9z M255.2,492.7l19.9-33.2l33.2,19.9l-5.5,1.4L255.2,492.7z
	 M406.2,387h-12.3l12.3-20.6V387z M325.2,472l-48.8-29.3c-3.6-2.1-8.2-1-10.4,2.6l-29.3,48.8l-208.3-125L219.9,50.2l263.6,158.2
	L325.2,472z"/>
<path class="st0" d="M271.4,137.6l55.3,33.2c1.2,0.7,2.6,1.1,3.9,1.1c2.6,0,5.1-1.3,6.5-3.7c2.2-3.6,1-8.2-2.6-10.4l-55.3-33.2
	c-3.6-2.1-8.2-1-10.4,2.6C266.7,130.8,267.9,135.4,271.4,137.6z"/>
<path class="st0" d="M354.4,187.4l76,45.6c3.8,2.3,8.9,0.7,10.8-3.3c1.6-3.5,0.3-7.7-3-9.6l-76-45.7c-3.6-2.1-8.2-1-10.4,2.6
	C349.6,180.6,350.8,185.2,354.4,187.4z"/>
<path class="st0" d="M198.1,150l62.2,37.4c1.2,0.7,2.6,1.1,3.9,1.1c2.6,0,5.1-1.3,6.5-3.7c2.2-3.6,1-8.2-2.6-10.4L205.9,137
	c-3.6-2.1-8.2-1-10.4,2.6S194.6,147.9,198.1,150z"/>
<path class="st0" d="M413.3,261.5L295.8,191c-3.6-2.1-8.2-1-10.4,2.6c-2.1,3.6-1,8.2,2.6,10.4l117.5,70.6c3.8,2.3,8.9,0.7,10.8-3.3
	C417.9,267.7,416.6,263.5,413.3,261.5z"/>
<path class="st0" d="M392.6,296.1L185.2,171.6c-3.6-2.1-8.2-1-10.4,2.6c-2.1,3.6-1,8.2,2.6,10.4l207.4,124.5
	c3.8,2.3,8.9,0.7,10.8-3.3C397.1,302.3,395.8,298.1,392.6,296.1z"/>
<path class="st0" d="M371.8,330.7l-159-95.4c-3.6-2.1-8.2-1-10.4,2.6c-2.1,3.6-1,8.2,2.6,10.4l159,95.5c3.8,2.3,8.9,0.7,10.8-3.3
	C376.4,336.8,375.1,332.6,371.8,330.7z"/>
<path class="st0" d="M135.9,253.7l124.4,74.7c1.2,0.7,2.6,1.1,3.9,1.1c2.6,0,5.1-1.3,6.5-3.7c2.1-3.6,1-8.2-2.6-10.4l-124.4-74.7
	c-3.6-2.1-8.2-1-10.4,2.6C131.1,246.9,132.3,251.6,135.9,253.7z"/>
<path class="st0" d="M351.1,365.2L295.8,332c-3.6-2.1-8.2-1-10.4,2.6c-2.2,3.6-1,8.2,2.6,10.4l55.3,33.2c3.8,2.3,8.9,0.7,10.8-3.3
	C355.6,371.4,354.3,367.2,351.1,365.2z"/>
<path class="st0" d="M115.1,288.3l48.4,29.1c1.2,0.7,2.6,1.1,3.9,1.1c2.6,0,5.1-1.3,6.5-3.7c2.1-3.6,1-8.2-2.6-10.4l-48.4-29.1
	c-3.6-2.1-8.2-1-10.4,2.6C110.4,281.5,111.6,286.1,115.1,288.3z"/>
<path class="st0" d="M330.3,399.8L199,321c-3.6-2.1-8.2-1-10.4,2.6c-2.1,3.6-1,8.2,2.6,10.4l131.4,78.9c3.8,2.3,8.9,0.7,10.8-3.3
	C334.9,406,333.6,401.8,330.3,399.8z"/>
<path class="st0" d="M309.6,434.4L102.2,309.9c-3.6-2.1-8.2-1-10.4,2.6s-1,8.2,2.6,10.4l207.4,124.5c3.8,2.3,8.9,0.7,10.8-3.3
	C314.1,440.5,312.8,436.3,309.6,434.4z"/>
<path class="st0" d="M164.4,394.2l-83-49.8c-3.6-2.1-8.2-1-10.4,2.6c-2.1,3.6-1,8.2,2.6,10.4l83,49.8c1.2,0.7,2.6,1.1,3.9,1.1
	c2.6,0,5.1-1.3,6.5-3.7C169.1,401,168,396.4,164.4,394.2z"/>
<path class="st0" d="M240.4,439.9L192,410.8c-3.6-2.1-8.2-1-10.4,2.6c-2.2,3.6-1,8.2,2.6,10.4l48.4,29.1c3.8,2.3,8.9,0.7,10.8-3.3
	C245,446.1,243.7,441.8,240.4,439.9z"/>
</svg>
