<?xml version="1.0" encoding="utf-8"?>
<!-- Generator: Adobe Illustrator 24.1.3, SVG Export Plug-In . SVG Version: 6.00 Build 0)  -->
<svg version="1.1" id="Capa_1" xmlns="http://www.w3.org/2000/svg" xmlns:xlink="http://www.w3.org/1999/xlink" x="0px" y="0px"
	 viewBox="0 0 512 512" style="enable-background:new 0 0 512 512;" xml:space="preserve">
<style type="text/css">
	.st0{fill:#3ECE90;}
</style>
<g>
	<g>
		<path class="st0" d="M462,92h-42V50c0-27.6-22.4-50-50-50H50C22.4,0,0,22.4,0,50v320c0,27.6,22.4,50,50,50h42v42
			c0,27.6,22.4,50,50,50h320c27.6,0,50-22.4,50-50V142C512,114.4,489.6,92,462,92z M50,400c-16.5,0-30-13.5-30-30V50
			c0-16.5,13.5-30,30-30h320c16.5,0,30,13.5,30,30v320c0,16.5-13.5,30-30,30H50z M492,462c0,16.5-13.5,30-30,30H142
			c-16.5,0-30-13.5-30-30v-42h258c27.6,0,50-22.4,50-50V112h42c16.5,0,30,13.5,30,30V462z"/>
	</g>
</g>
<g>
	<g>
		<path class="st0" d="M142.3,457H142c-5.5,0-10,4.5-10,10s4.5,10,10,10h0.3c5.5,0,10-4.5,10-10S147.8,457,142.3,457z"/>
	</g>
</g>
<g>
	<g>
		<path class="st0" d="M462,457H171c-5.5,0-10,4.5-10,10s4.5,10,10,10h291c5.5,0,10-4.5,10-10S467.5,457,462,457z"/>
	</g>
</g>
<g>
	<g>
		<path class="st0" d="M110,35h-0.3c-5.5,0-10,4.5-10,10s4.5,10,10,10h0.3c5.5,0,10-4.5,10-10S115.6,35,110,35z"/>
	</g>
</g>
<g>
	<g>
		<path class="st0" d="M81,35H50c-5.5,0-10,4.5-10,10s4.5,10,10,10h31c5.5,0,10-4.5,10-10C91,39.5,86.6,35,81,35z"/>
	</g>
</g>
<g>
	<g>
		<path class="st0" d="M293.5,201.1c-2.4-8.8-8-16.1-15.9-20.7l-48.9-28.2c-0.5-0.3-1-0.6-1.5-0.9l-48.8-28.2
			c-5.6-3.7-12.1-5.6-18.8-5.6c-18.9,0-34.2,15.4-34.2,34.2v116.6c0,0.4,0,0.8,0.1,1.2c0.2,5.6,1.8,11.1,4.6,15.9
			c6.1,10.5,17.4,17,29.6,17c6,0,11.9-1.6,17.1-4.6l50.5-29.2c0.3-0.2,0.6-0.3,0.8-0.5l49.2-28.4c5.4-3,9.8-7.4,12.9-12.8
			C294.7,219.1,295.9,209.9,293.5,201.1z M272.8,217.1c-1.3,2.2-3.1,4.1-5.4,5.3c0,0-0.1,0.1-0.1,0.1l-50.1,28.9
			c-0.3,0.2-0.6,0.3-0.8,0.5l-49.7,28.7c-2.2,1.3-4.6,1.9-7.1,1.9c-5.1,0-9.8-2.7-12.3-7.1c-1.3-2.2-1.9-4.6-1.9-7.1
			c0-0.3,0-0.7-0.1-1V151.7h0c0-7.8,6.4-14.2,14.2-14.2c2.9,0,5.6,0.8,7.9,2.4c0.2,0.1,0.4,0.3,0.6,0.4l49.1,28.3
			c0.2,0.1,0.5,0.3,0.7,0.4c0.2,0.1,0.3,0.2,0.5,0.3l49.2,28.4c3.3,1.9,5.6,4.9,6.6,8.6C275.2,210,274.7,213.8,272.8,217.1z"/>
	</g>
</g>
</svg>
