<?xml version="1.0" encoding="utf-8"?>
<!-- Generator: Adobe Illustrator 23.0.3, SVG Export Plug-In . SVG Version: 6.00 Build 0)  -->
<svg version="1.1" id="Isolation_Mode" xmlns="http://www.w3.org/2000/svg" xmlns:xlink="http://www.w3.org/1999/xlink" x="0px"
	 y="0px" viewBox="0 0 266.6 124.7" style="enable-background:new 0 0 266.6 124.7;" xml:space="preserve">
<style type="text/css">
	.st0{display:none;}
	.st1{display:inline;}
	.st2{fill:#FFFFFF;}
	.st3{clip-path:url(#SVGID_2_);}
	.st4{opacity:0.2;fill:#FFFFFF;}
</style>
<g class="st0">
	<g class="st1">
		<g>
			<circle class="st2" cx="428.4" cy="93.2" r="15.9"/>
		</g>
		<g>
			<circle class="st2" cx="483.7" cy="93.2" r="15.9"/>
		</g>
		<g>
			<circle class="st2" cx="538.9" cy="93.2" r="15.9"/>
		</g>
	</g>
</g>
<g>
	<defs>
		<path id="SVGID_1_" d="M246.8,124.7H19.8C8.9,124.7,0,115.8,0,104.9v-85C0,8.9,8.9,0,19.8,0h226.9c10.9,0,19.8,8.9,19.8,19.8v85
			C266.6,115.8,257.7,124.7,246.8,124.7z"/>
	</defs>
	<clipPath id="SVGID_2_">
		<use xlink:href="#SVGID_1_"  style="overflow:visible;"/>
	</clipPath>
	<g class="st3">
		<circle class="st4" cx="16.3" cy="40.5" r="72.3"/>
		<circle class="st4" cx="52" cy="121.1" r="58.7"/>
		<circle class="st4" cx="109" cy="16.5" r="58.7"/>
		<circle class="st4" cx="158.6" cy="14.3" r="50.8"/>
		<circle class="st4" cx="40.3" cy="47.7" r="31.2"/>
		<circle class="st4" cx="176.2" cy="55.6" r="20.8"/>
		<circle class="st4" cx="58.1" cy="1.1" r="19.8"/>
	</g>
</g>
</svg>
