<?xml version="1.0" encoding="utf-8"?>
<!-- Generator: Adobe Illustrator 23.0.3, SVG Export Plug-In . SVG Version: 6.00 Build 0)  -->
<svg version="1.1" id="Layer_1" xmlns="http://www.w3.org/2000/svg" xmlns:xlink="http://www.w3.org/1999/xlink" x="0px" y="0px"
	 viewBox="0 0 768.8 86" style="enable-background:new 0 0 768.8 86;" xml:space="preserve">
<style type="text/css">
	.st0{opacity:0.5;fill:#FFFFFF;enable-background:new    ;}
	.st1{fill:#FFFFFF;}
</style>
<path class="st0" d="M768.8,37.1c0,0-89.6-53.1-200.9-21.5s-203.2,60.3-242,50.1S160.3-0.7,0,62.6V86h768.8V37.1z"/>
<path class="st0" d="M0,9.5c0,0,77.2-9.5,113,7.1c99.4,46.2,124.9,7.7,175.8-4.3C370.5-6.8,403,2.5,496.2,27.9
	s272.6,24.5,272.6,24.5V86H0.4L0,9.5z"/>
<path class="st1" d="M0,42.3c0,0,114.4-59,246.3-29.9c131.9,29.1,207.1,57.4,271.5,53.6C582.2,62.2,645,33.5,645,33.5
	s89.6-48,123.7-29.2V86H0V42.3z"/>
</svg>
