<?xml version="1.0" encoding="utf-8"?>
<!-- Generator: Adobe Illustrator 23.0.3, SVG Export Plug-In . SVG Version: 6.00 Build 0)  -->
<svg version="1.1" id="Layer_1" xmlns="http://www.w3.org/2000/svg" xmlns:xlink="http://www.w3.org/1999/xlink" x="0px" y="0px"
	 viewBox="0 0 768.77 85.97" style="enable-background:new 0 0 768.77 85.97;" xml:space="preserve">
<style type="text/css">
	.st0{opacity:0.5;fill:#FFFFFF;}
	.st1{fill:#FFFFFF;}
</style>
<path class="st0" d="M768.77,37.06c0,0-89.63-53.11-200.94-21.45S364.6,75.87,325.79,65.66S160.34-0.73,0,62.59v23.38h768.77V37.06z
	"/>
<path class="st0" d="M0.41,9.49c0,0,77.2-9.49,112.95,7.15c99.31,46.22,124.82,7.67,175.66-4.28
	c81.7-19.21,114.14-9.87,207.32,15.51s272.43,24.51,272.43,24.51v33.59H0.81L0.41,9.49z"/>
<path class="st1" d="M0.91,42.31c0,0,114.23-58.98,245.98-29.87C378.64,41.54,453.7,69.88,518.04,66.05
	c64.34-3.83,127.15-32.53,127.15-32.53s89.46-47.95,123.58-29.16v81.6H0.91V42.31z"/>
</svg>
